<svg width="50" height="50" viewBox="0 0 50 50" fill="none" xmlns="http://www.w3.org/2000/svg">
<path d="M11 12L8.11325 17H13.8868L11 12ZM38.3536 38.8536C38.5488 38.6583 38.5488 38.3417 38.3536 38.1464L35.1716 34.9645C34.9763 34.7692 34.6597 34.7692 34.4645 34.9645C34.2692 35.1597 34.2692 35.4763 34.4645 35.6716L37.2929 38.5L34.4645 41.3284C34.2692 41.5237 34.2692 41.8403 34.4645 42.0355C34.6597 42.2308 34.9763 42.2308 35.1716 42.0355L38.3536 38.8536ZM36 14H36.5V13.5H36V14ZM10.5 16.5V33.5H11.5V16.5H10.5ZM16 39H38V38H16V39ZM16 14.5H36V13.5H16V14.5ZM35.5 14V34.5H36.5V14H35.5ZM10.5 33.5C10.5 36.5376 12.9624 39 16 39V38C13.5147 38 11.5 35.9853 11.5 33.5H10.5Z" fill="#C8C8C8"/>
<path d="M19.7244 29V22.4545H21.4545V23.6094H21.5312C21.6676 23.2259 21.8949 22.9233 22.2131 22.7017C22.5312 22.4801 22.9119 22.3693 23.3551 22.3693C23.804 22.3693 24.1861 22.4815 24.5014 22.706C24.8168 22.9276 25.027 23.2287 25.1321 23.6094H25.2003C25.3338 23.2344 25.5753 22.9347 25.9247 22.7102C26.277 22.483 26.6932 22.3693 27.1733 22.3693C27.7841 22.3693 28.2798 22.5639 28.6605 22.9531C29.044 23.3395 29.2358 23.8878 29.2358 24.598V29H27.4247V24.956C27.4247 24.5923 27.3281 24.3196 27.1349 24.1378C26.9418 23.956 26.7003 23.8651 26.4105 23.8651C26.081 23.8651 25.8239 23.9702 25.6392 24.1804C25.4545 24.3878 25.3622 24.6619 25.3622 25.0028V29H23.6023V24.9176C23.6023 24.5966 23.5099 24.3409 23.3253 24.1506C23.1435 23.9602 22.9034 23.8651 22.6051 23.8651C22.4034 23.8651 22.2216 23.9162 22.0597 24.0185C21.9006 24.1179 21.7741 24.2585 21.6804 24.4403C21.5866 24.6193 21.5398 24.8295 21.5398 25.071V29H19.7244Z" fill="white"/>
<path d="M30.3537 23V22.3352L31.907 20.897C32.0391 20.7692 32.1499 20.6541 32.2393 20.5518C32.3303 20.4496 32.3991 20.3494 32.446 20.2514C32.4929 20.152 32.5163 20.0447 32.5163 19.9297C32.5163 19.8018 32.4872 19.6918 32.429 19.5994C32.3707 19.5057 32.2912 19.4339 32.1903 19.3842C32.0895 19.3331 31.9751 19.3075 31.8473 19.3075C31.7138 19.3075 31.5973 19.3345 31.4979 19.3885C31.3984 19.4425 31.3217 19.5199 31.2678 19.6207C31.2138 19.7216 31.1868 19.8416 31.1868 19.9808H30.3111C30.3111 19.6953 30.3757 19.4474 30.505 19.2372C30.6342 19.027 30.8153 18.8643 31.0483 18.7493C31.2813 18.6342 31.5497 18.5767 31.8537 18.5767C32.1662 18.5767 32.4382 18.6321 32.6697 18.7429C32.9027 18.8523 33.0838 19.0043 33.2131 19.1989C33.3423 19.3935 33.407 19.6165 33.407 19.8679C33.407 20.0327 33.3743 20.1953 33.3089 20.3558C33.245 20.5163 33.1307 20.6946 32.9659 20.8906C32.8011 21.0852 32.5689 21.3189 32.2692 21.5916L31.6321 22.2159V22.2457H33.4645V23H30.3537Z" fill="white"/>
</svg>
