<svg width="50" height="50" viewBox="0 0 50 50" fill="none" xmlns="http://www.w3.org/2000/svg">
<path d="M26.5 14C26.5 13.5773 26.366 13.244 26.1547 13M26.5 14C27.1667 13.3333 29.3 12.5 32.5 14.5C34.7278 15.8924 36.6002 15.9115 37.8135 15.5696M26.5 14C26.5 14.7739 26.0508 15.2484 25.5 15.4233M23.5 14C23.5 13.5773 23.634 13.244 23.8453 13M23.5 14C21 12.1227 18.2279 14.636 17.5 15C15.1949 16.1525 13.0506 16.0867 11.8305 15.5696M23.5 14C23.5 14.7739 23.9492 15.2484 24.5 15.4233M26.1547 13C26.9365 12.3333 29.3 11.4 32.5 13C35.7 14.6 37.5 14.3333 38 14V13.5C38 12.5 39 12.5 39 13.5V15C38.7468 15.2025 38.3429 15.4205 37.8135 15.5696M26.1547 13C25.9791 12.7972 25.75 12.6561 25.5 12.5767M23.8453 13C22.8969 12.3333 20.3 11.4 17.5 13C14.7 14.6 12.6667 14.3333 12 14V13.5C12 12.5 11 12.5 11 13.5V15C11.1789 15.2169 11.4627 15.4138 11.8305 15.5696M23.8453 13C24.0209 12.7972 24.25 12.6561 24.5 12.5767M24.5 12.5767C24.8218 12.4744 25.1782 12.4744 25.5 12.5767M24.5 12.5767C22 6.5 28 6.5 25.5 12.5767M24.5 15.4233C24 17.3333 23.3 22.438 24.5 27.5767M24.5 15.4233C24.8218 15.5256 25.1782 15.5256 25.5 15.4233M24.5 27.5767C23.9492 27.7516 23.5 28.2261 23.5 29C23.5 29.6477 23.8146 30.0856 24.2401 30.3138M24.5 27.5767C24.8218 27.4744 25.1782 27.4744 25.5 27.5767M25.5 15.4233C26.0516 17.3333 26.8238 22.438 25.5 27.5767M25.5 27.5767C26.0508 27.7516 26.5 28.2261 26.5 29C26.5 29.6477 26.1853 30.0856 25.7599 30.3138M24.2401 30.3138V32C23 32 23 35 24.2401 36.5C22.9934 37.6667 19.8 40 17 40H33C30.2 40 27.1667 37.6667 26 36.5C27 35 27 32 25.7599 32V30.3138M24.2401 30.3138C24.7029 30.5621 25.297 30.562 25.7599 30.3138M37.8135 15.5696V18.7973M37.8135 30.2973H44.3135M37.8135 30.2973H31.3135M37.8135 30.2973V18.7973M44.3135 30.2973L37.8135 18.7973M44.3135 30.2973C44.3135 34.7973 31.3135 34.7973 31.3135 30.2973M31.3135 30.2973L37.8135 18.7973M11.8305 15.5696V18.7973M11.8305 30.2973H5.5M11.8305 30.2973V18.7973M11.8305 30.2973L18.5 30.3138M5.5 30.2973L11.8305 18.7973M5.5 30.2973C5.5 35 18.5 35 18.5 30.3138M11.8305 18.7973L18.5 30.3138" stroke="#C8C8C8" stroke-width="0.5" stroke-linejoin="round"/>
</svg>
