<svg width="50" height="50" viewBox="0 0 50 50" fill="none" xmlns="http://www.w3.org/2000/svg">
<path d="M9.67792 21.0642L11.6779 27.0642H13.1779M9.67792 21.0642C9.17792 21.1749 8.07792 21.6632 7.67792 22.7303C7.67792 21.6749 8.47792 19.2642 11.6779 18.0642C11.1779 17.5642 9.67792 16.8642 7.67792 18.0642C5.17792 19.5642 10.1779 14.0642 13.1779 15.0642C13.3446 14.7309 13.4779 13.9642 12.6779 13.5642C11.6779 13.0642 16.6779 13.0642 18.6779 15.0642C19.0113 14.2309 20.5779 12.6642 24.1779 13.0642C23.1779 13.3975 21.2779 14.1642 21.6779 14.5642C24.4954 13.7309 31.085 12.5642 34.9041 14.5642C33.3287 14.5642 30.3779 14.7642 31.1779 15.5642C32.6779 15.5642 35.7779 15.9642 36.1779 17.5642C35.3446 17.2309 33.4779 16.6642 32.6779 17.0642C33.363 17.2594 34.6222 17.905 34.1779 18.9261C33.8446 18.4721 32.8779 17.7642 31.6779 18.5642C32.6964 18.8421 34.6222 19.7313 34.1779 21.0642M9.67792 21.0642L13.1779 21.0642C12.3779 21.8642 12.8446 23.0642 13.1779 23.5642C13.5779 22.3642 15.6779 21.3975 16.6779 21.0642L27.6779 21.0642C28.8446 21.3975 30.6779 22.5642 30.6779 23.5642C31.6779 23.0642 32.2779 21.8642 30.6779 21.0642L34.1779 21.0642M34.1779 21.0642L33.6225 22.7303M34.1779 21.0642L41.3335 18.9261C41.8037 18.1081 43.1779 18.3208 43.1779 19.5642C43.1779 20.8076 41.8037 21.0203 41.3335 20.2023L33.6225 22.7303M13.1779 27.0642L13.6779 28.3474M13.1779 27.0642H17.6779M13.6779 28.3474C12.0107 28.9112 10.6779 30.3168 10.6779 32.5642C10.6779 38.5642 20.1779 38.5642 20.1779 32.5642C20.1779 30.3168 18.8452 28.9112 17.178 28.3474M13.6779 28.3474C14.7946 27.9698 16.0613 27.9697 17.178 28.3474M17.178 28.3474L17.6779 27.0642M17.6779 27.0642H23.1779M23.1779 27.0642L27.6779 34.0642L30.6779 27.0642M23.1779 27.0642H30.6779M30.6779 27.0642H32.1779L33.6225 22.7303M18.6779 17.5642C18.0113 16.8975 16.1779 15.8642 14.1779 17.0642M24.1779 17.5642C25.0113 16.2309 26.6779 15.0642 29.6779 15.5642M26.6779 19.5642C27.3113 19.0642 28.9979 18.3642 30.6779 19.5642" stroke="#C8C8C8" stroke-width="0.5" stroke-linejoin="round"/>
</svg>
