<svg width="50" height="50" viewBox="0 0 50 50" fill="none" xmlns="http://www.w3.org/2000/svg">
<path d="M35.5519 15.3034C35.1519 16.1034 32.5519 15.8034 31.5519 15.3034C31.5519 15.53 32.0519 16.3034 32.5519 16.3034M35.5519 15.3034C35.9519 16.1034 35.7185 16.3034 35.5519 16.3034C34.7781 16.1744 33.3456 15.9755 32.5519 16.3034M35.5519 15.3034C35.6561 15.1991 35.7767 15.103 35.9097 15.017M39.5519 15.3034C39.1519 14.9034 38.0519 15.1367 37.5519 15.3034C38.0519 14.8034 38.0519 14.9701 38.5519 14.8034C37.7083 14.3816 36.5519 14.8034 35.9097 15.017M39.5519 15.3034C39.9519 16.5034 42.3852 15.8034 43.5519 15.3034C43.3751 15.6391 42.8747 16.3598 42.2867 16.557M39.5519 15.3034C39.3852 15.4701 39.1519 15.9034 39.5519 16.3034C40.1773 16.3034 41.385 16.3597 42.2867 16.557M40.0519 18.3034C41.0519 20.8034 44.0519 17.3034 43.0519 16.8034C42.8523 16.7036 42.5864 16.6225 42.2867 16.557M40.0519 18.3034C39.8852 17.9701 39.5519 17.2034 39.5519 16.8034C40.3852 16.8034 42.1519 16.9034 42.5519 17.3034M40.0519 18.3034C40.2185 18.8034 40.0519 19.8034 39.5519 19.8034C39.5519 20.3034 39.4519 21.4034 39.0519 21.8034C39.2185 21.9701 39.4519 22.4034 39.0519 22.8034V24.3034C38.6093 24.7459 37.5401 25.3451 36.4683 24.6451M40.0519 18.3034C39.8852 18.1367 39.4519 18.0034 39.0519 18.8034M35.0519 18.3034C33.4519 19.9034 32.3852 17.9701 32.0519 16.8034C32.1423 16.6224 32.3198 16.3993 32.5519 16.3034M35.0519 18.3034C35.3232 17.8855 35.8031 17.0005 35.5519 16.8034C35.0519 16.6367 33.7519 16.4034 32.5519 16.8034M35.0519 18.3034C34.8852 18.6367 34.7519 19.4034 35.5519 19.8034C35.3852 20.1367 35.2519 21.0034 36.0519 21.8034C35.6519 22.2034 35.8852 22.6367 36.0519 22.8034V24.3034C36.1898 24.4413 36.329 24.5542 36.4683 24.6451M35.0519 18.3034C35.2185 18.1367 35.6519 18.0034 36.0519 18.8034M37.0519 15.8034C37.3852 15.8034 38.0519 16.0034 38.0519 16.8034C38.2185 16.6367 38.4519 16.2034 38.0519 15.8034M36.5519 23.8034C36.8852 23.9701 37.7519 24.2034 38.5519 23.8034M36.5519 20.8034C36.8852 21.1367 37.7519 21.6034 38.5519 20.8034M37.0519 18.3034C36.8852 18.4701 36.5519 18.9034 36.5519 19.3034M38.0519 17.8034C38.2185 17.9701 38.5519 18.4034 38.5519 18.8034M35.9097 15.017C35.9097 13.5841 30.5519 11.3034 17.7674 15.017C16.0289 14.4458 12.5519 13.6034 12.5519 14.8034C11.2185 14.3034 8.45185 13.6034 8.05185 14.8034C7.84392 15.4272 7.636 15.878 7.5719 16.6234M12.0519 37.8034H10.0519L9.55185 37.3034V36.8034H9.05185C9.85185 36.4034 9.71852 33.9701 9.55185 32.8034C7.95185 30.0034 8.21852 28.9701 8.55185 28.8034C10.1519 28.0034 9.21852 24.4701 8.55185 22.8034C8.36487 22.0555 8.20896 21.393 8.08026 20.8034M12.0519 37.8034L10.5519 36.3034L11.0519 35.3034C10.7185 34.4701 10.2519 32.1034 11.0519 29.3034C11.2904 29.3034 11.751 28.996 12.1402 27.9413M12.0519 37.8034L13.5519 37.3034C13.1559 37.3034 12.8217 36.9042 12.5455 36.3034M30.5519 35.8034H29.5519M30.5519 35.8034C30.2185 34.9701 29.6519 33.0034 30.0519 31.8034C30.3227 31.9388 30.8135 31.3262 30.9881 28.3034M30.5519 35.8034L31.1416 36.688M31.0519 25.8034C31.0519 26.7789 31.0284 27.6054 30.9881 28.3034M30.9881 28.3034C31.2813 28.3971 31.5899 28.4909 31.9103 28.5506M36.4683 24.6451C34.9112 28.4299 33.2989 28.8095 31.9103 28.5506M17.3579 26.8034C15.6997 26.0304 14.7644 24.941 14.5519 24.3034C13.7519 24.7034 12.8852 25.8034 12.5519 26.3034C12.4381 26.9856 12.2948 27.5224 12.1402 27.9413M17.3579 26.8034C17.2559 27.1367 16.8519 27.9034 16.0519 28.3034M17.3579 26.8034C17.6322 26.9313 17.9263 27.0505 18.2401 27.1576M16.0519 28.3034C15.8852 28.8034 15.4519 29.8034 15.0519 29.8034C15.2185 29.4701 15.4519 28.7034 15.0519 28.3034C15.0519 28.8034 14.9519 29.8034 14.5519 29.8034C14.1519 29.8034 14.0519 29.1367 14.0519 28.8034C13.8201 28.8517 13.4342 28.8625 13.0519 28.73M16.0519 28.3034C16.0519 28.8034 16.1519 29.8034 16.5519 29.8034C16.7185 29.6367 17.0519 29.1034 17.0519 28.3034C17.5107 28.0395 18.3907 27.4409 18.2401 27.1576M12.1402 27.9413C12.3637 28.3734 12.7063 28.6102 13.0519 28.73M18.2401 27.1576C20.4923 27.9259 23.7628 28.0695 28.0519 26.3034C28.0519 28.3034 28.2519 32.2034 29.0519 31.8034L28.5519 35.3034H29.0519V35.8034C28.5519 36.4701 28.3519 37.7034 31.5519 37.3034L31.1416 36.688M13.0519 28.73L11.5519 31.8034C11.6635 33.0318 11.9847 35.0833 12.5455 36.3034M12.5455 36.3034L12.0519 36.8034M31.9103 28.5506L31.5519 30.3034C31.5519 30.6367 31.4519 31.3034 31.0519 31.3034C30.6519 31.3034 30.8852 33.3034 31.0519 34.3034C31.2379 34.5204 31.5519 34.8034 31.5519 35.3034M31.5519 35.3034C32.6117 35.7265 33.6134 36.5958 31.1416 36.688M31.5519 35.3034H31.0519M7.5719 16.6234C7.73188 20.3501 7.75185 28.5034 6.55185 31.3034M7.5719 16.6234C7.50108 17.447 7.60586 18.6301 8.08026 20.8034M6.55185 31.3034C5.35185 34.1034 6.38519 34.8034 7.05185 34.8034C6.88518 34.6367 6.65185 34.3034 7.05185 34.3034C7.45185 34.3034 7.21852 32.9701 7.05185 32.3034L7.05185 31.3034M6.55185 31.3034H7.05185M7.05185 31.3034C7.55185 29.8034 8.05185 26.8034 8.08026 20.8034M29.0519 17.8034C28.2185 18.6367 26.7518 21.1034 27.5518 24.3034M24.5518 17.8034C24.0518 18.1367 23.1518 19.1034 23.5518 20.3034M22.5518 17.8034C22.0518 18.1367 21.2518 19.1034 22.0518 20.3034M20.5518 17.8034C20.0518 18.3034 19.2518 19.5034 20.0518 20.3034M37.0519 21.8034C36.8852 21.8034 36.5519 22.0034 36.5519 22.8034C36.5519 23.6034 36.8852 22.4701 37.0519 21.8034ZM38.0519 21.8034C38.2185 21.8034 38.5519 22.0034 38.5519 22.8034C38.5519 23.6034 38.2185 22.4701 38.0519 21.8034Z" stroke="#C8C8C8" stroke-width="0.25"/>
</svg>
