<svg width="50" height="50" viewBox="0 0 50 50" fill="none" xmlns="http://www.w3.org/2000/svg">
<path d="M15.3061 20.8049C15.3327 21.0785 15.4103 21.3206 15.5 21.5C16.0649 22.0561 16.7354 21.7317 17 21.5C16.6 20.3 15.7041 20.5366 15.3061 20.8049Z" fill="#D9D9D9"/>
<path fill-rule="evenodd" clip-rule="evenodd" d="M25.3802 19.8378C24.1765 19.9123 23.6313 20.8946 23.5 21.5C24.3815 21.8526 25.0363 21.7649 25.5073 21.4852C25.8961 20.6921 25.5855 20.0571 25.3802 19.8378Z" fill="#D9D9D9"/>
<path d="M17 16.5C16 16 14.5 13.5 16 11C16 13 16.8 14.5 18 14.5M17 16.5C17 16.1667 17.2 15.5 18 15.5C17.6667 15.3333 17.2 14.9 18 14.5M17 16.5C17 17.3333 16.5 18 13.5 16.5C12.7667 16.1334 11.6 16.6 10 19C10.8333 19.1667 11.8896 19.2791 12.5 20.5C13 21.5 14 22.5 15.5 21.5M18 14.5C18.6667 13.6667 20.3 12.4 21.5 14M21.5 14C22.1667 13.3333 23.9 12.4 25.5 14M21.5 14C21.4898 14.041 21.4804 14.0845 21.4722 14.1301M25.5 14C26.3333 13.5 27.5 12 26.5 10C28 11 29 13.5 27 16M25.5 14C25.3333 14.3333 25.2 15 26 15C25.8333 15.5 25.8 16.4 27 16M27 16C27.2487 16 27.6829 16.1113 27.8874 16.5M23 16C21.4984 16 21.3473 14.8256 21.4722 14.1301M21.4722 14.1301C21.4815 14.7534 21 16 19 16M20.5 14.5C20.3333 14.6667 19.8 15 19 15M22.5 14.5C22.8333 14.3333 23.7 14.4 24.5 16M15.5 21.5C15.3333 22.1667 15.2 23.5 16 23.5C16.4776 23.5 16.4177 24.4503 16.1953 25.5M15.5 21.5C15.4103 21.3206 15.3327 21.0785 15.3061 20.8049M15.5 21.5C16.0649 22.0561 16.7354 21.7317 17 21.5C16.6 20.3 15.7041 20.5366 15.3061 20.8049M11.5 18.5C11.7969 17.8466 12.6126 16.7319 13.5 17.5C14.3874 18.2681 16.2031 18.4867 17 18.5C16.3245 18.7702 15.8961 19.1241 15.6379 19.5M15.6379 19.5C16.4253 19.8333 17.9 20.8 17.5 22C18.5438 22.1544 17.6016 23.0643 17 23.5C17.6438 24.2271 16.7318 25.1363 16.1953 25.5M15.6379 19.5C15.3373 19.9376 15.2672 20.4049 15.3061 20.8049M15.5 34.5C14.8333 34.5 13.6 34.3 14 33.5C14.4 32.7 14.1667 30.8333 14 30C15.2 28.8 15.5919 27.8333 15.6379 27.5C15.8209 26.9626 16.0451 26.2087 16.1953 25.5M15.5 34.5C15.3333 33.8333 16.2 32.8 21 34M15.5 34.5C16.6613 35.0807 18.9232 35.629 21 34.6901M25 29C23.4 29.8 23.3333 31.6667 23.5 32.5C22.7723 33.5915 21.9037 34.2816 21 34.6901M28 17C28 17.8 28.6667 17.6667 29 17.5C29.3333 16.8333 30.5 15.8 32.5 17C32.8333 17.1667 33.7 17.5 34.5 17.5C34.9894 17.5 34.2563 18.6226 33.3081 19.8378M28 17C27.6667 17.5 27.2 18.5 28 18.5C28.8 18.5 29.3333 18.1667 29.5 18C29.8333 17.5 31 16.8 33 18M28 17C28 16.7968 27.957 16.6323 27.8874 16.5M27 21.5C27.5286 21.2357 28.0863 21.3934 28.5 21.627M23 20.5C23.1667 19.8333 24 18.6 26 19M30.7444 22.5911C31.0932 22.4699 31.3558 22.2163 31.5 22C32.0177 21.4176 32.7063 20.609 33.3081 19.8378M30.7444 22.5911C30.2868 22.7501 29.681 22.681 29 22C28.8869 21.8869 28.7124 21.747 28.5 21.627M30.7444 22.5911C29.8296 23.2274 28.2 25.3 29 28.5M29 28.5C29.1667 29.1667 28.9 30.7 26.5 31.5C26.3333 31.9454 25.7 32.8689 24.5 33C24.3456 33.3676 24.0122 33.8759 23.5 34.2607M29 28.5C29 27.3333 29.9 25.4 33.5 27M21 34.6901C22.0734 34.9864 22.9067 34.7064 23.5 34.2607M21.5 26.5C21.1667 27 20.7 28.1 21.5 28.5C21.3333 28.6667 21.1 29.1 21.5 29.5C21.8333 29.8333 22.4 30.7 22 31.5M25.3802 19.8378C24.1765 19.9123 23.6313 20.8946 23.5 21.5C24.3815 21.8526 25.0363 21.7649 25.5073 21.4852M25.3802 19.8378C25.7042 19.8177 26.0758 19.8634 26.5 20C26.4068 20.4661 26.1051 21.1302 25.5073 21.4852M25.3802 19.8378C25.5855 20.0571 25.8961 20.6921 25.5073 21.4852M25.5 21.5C25.5025 21.495 25.5049 21.4901 25.5073 21.4852M27.8874 16.5L26.5 18C25.6667 17.5 23.8 16.9 23 18.5C22.2 20.1 21.3333 20.8333 21 21C21.5 21.6667 22.2 23.3 21 24.5C21.3333 24.1667 22.2 23.8 23 25C23.8 26.2 25 25.1667 25.5 24.5C26.1667 24 27.5 23.4 27.5 25C27.5 23.7513 27.7 21.3286 28.5 21.627M23.5 34.2607C24.3333 34.0071 26.1 34 26.5 36C26.9 38 28.6667 38.8333 29.5 39M33.3081 19.8378C34.5387 19.5585 37.4 19.3 39 20.5M15 30C15.6667 30.5 16.8 31.6 16 32C15.2 32.4 15 30.8333 15 30ZM20.5 30C20 30.1667 19.1 30.8 19.5 32C19.9 33.2 20.3333 31.1667 20.5 30Z" stroke="#C8C8C8" stroke-width="0.5" stroke-linecap="round" stroke-linejoin="round"/>
</svg>
