<svg width="50" height="50" viewBox="0 0 50 50" fill="none" xmlns="http://www.w3.org/2000/svg">
<path d="M32 18C28.6897 29.0833 28.6897 34.0444 29.1034 37H26C26 23.7 30 20.3222 32 18Z" stroke="#C8C8C8" stroke-linejoin="round"/>
<path d="M34 26C31.8333 30.4 31.7083 35.1667 31.9167 37H29C29.3333 30.0118 32.4722 26.7549 34 26Z" stroke="#C8C8C8" stroke-linejoin="round"/>
<path d="M17 17C19.72 24.3443 20.1333 33.2842 20 37H23C22.6 25.1967 18.8 18.2022 17 17Z" stroke="#C8C8C8" stroke-linejoin="round"/>
<path d="M16 26C19.6522 28.7657 20.8551 34.381 21 37H17.3043C18.3478 31.9714 16.8696 27.6762 16 26Z" stroke="#C8C8C8" stroke-linejoin="round"/>
<path d="M21 12C26.1724 18.0127 26.7241 29.9325 27 37H23.8966C23.6897 14.2152 21.8276 15.1646 21 12Z" stroke="#C8C8C8" stroke-linejoin="round"/>
</svg>
