<svg width="100" height="100" viewBox="0 0 100 100" fill="none" xmlns="http://www.w3.org/2000/svg">
<path d="M64 17C47.6207 29.2658 45.8736 53.5823 45 68H54.8276C55.4828 21.519 61.3793 23.4557 64 17Z" fill="#00AA02" stroke="#00AA02" stroke-linejoin="round"/>
<path d="M28 30C38.4828 52.1667 38.4828 62.0889 37.1724 68H47C47 41.4 34.3333 34.6444 28 30Z" fill="#33BD00" stroke="#33BD00" stroke-linejoin="round"/>
<path d="M22 45C28.5 54.2 28.875 64.1667 28.25 68H37C36 53.3882 26.5833 46.5784 22 45Z" fill="#78D609" stroke="#78D609" stroke-linejoin="round"/>
<path d="M73 26C64.3867 41.423 63.0778 60.1967 63.5 68H54C55.2667 43.2131 67.3 28.5246 73 26Z" fill="#008000" stroke="#008000" stroke-linejoin="round"/>
<path d="M77 45C66.0435 50.7829 62.4348 62.5238 62 68H73.087C69.9565 57.4857 74.3913 48.5048 77 45Z" fill="#005B01" stroke="#005B01" stroke-linejoin="round"/>
<g filter="url(#filter0_d_23_30)">
<path d="M31.7784 75.6364C31.7784 76.5881 31.598 77.3977 31.2372 78.0653C30.8793 78.733 30.3906 79.2429 29.7713 79.5952C29.1548 79.9446 28.4616 80.1193 27.6918 80.1193C26.9162 80.1193 26.2202 79.9432 25.6037 79.5909C24.9872 79.2386 24.5 78.7287 24.142 78.0611C23.7841 77.3935 23.6051 76.5852 23.6051 75.6364C23.6051 74.6847 23.7841 73.875 24.142 73.2074C24.5 72.5398 24.9872 72.0312 25.6037 71.6818C26.2202 71.3295 26.9162 71.1534 27.6918 71.1534C28.4616 71.1534 29.1548 71.3295 29.7713 71.6818C30.3906 72.0312 30.8793 72.5398 31.2372 73.2074C31.598 73.875 31.7784 74.6847 31.7784 75.6364ZM29.9077 75.6364C29.9077 75.0199 29.8153 74.5 29.6307 74.0767C29.4489 73.6534 29.1918 73.3324 28.8594 73.1136C28.527 72.8949 28.1378 72.7855 27.6918 72.7855C27.2457 72.7855 26.8565 72.8949 26.5241 73.1136C26.1918 73.3324 25.9332 73.6534 25.7486 74.0767C25.5668 74.5 25.4759 75.0199 25.4759 75.6364C25.4759 76.2528 25.5668 76.7727 25.7486 77.196C25.9332 77.6193 26.1918 77.9403 26.5241 78.1591C26.8565 78.3778 27.2457 78.4872 27.6918 78.4872C28.1378 78.4872 28.527 78.3778 28.8594 78.1591C29.1918 77.9403 29.4489 77.6193 29.6307 77.196C29.8153 76.7727 29.9077 76.2528 29.9077 75.6364ZM34.9265 71.2727V80H33.1112V71.2727H34.9265ZM37.5014 82.4545C37.2713 82.4545 37.0554 82.4361 36.8537 82.3991C36.6548 82.3651 36.4901 82.321 36.3594 82.267L36.7685 80.9119C36.9815 80.9773 37.1733 81.0128 37.3438 81.0185C37.517 81.0241 37.6662 80.9844 37.7912 80.8991C37.919 80.8139 38.0227 80.669 38.1023 80.4645L38.2088 80.1875L35.8608 73.4545H37.7699L39.125 78.2614H39.1932L40.5611 73.4545H42.483L39.9389 80.7074C39.8168 81.0597 39.6506 81.3665 39.4403 81.6278C39.233 81.892 38.9702 82.0952 38.652 82.2372C38.3338 82.3821 37.9503 82.4545 37.5014 82.4545ZM43.4119 80V73.4545H45.142V74.6094H45.2188C45.3551 74.2259 45.5824 73.9233 45.9006 73.7017C46.2188 73.4801 46.5994 73.3693 47.0426 73.3693C47.4915 73.3693 47.8736 73.4815 48.1889 73.706C48.5043 73.9276 48.7145 74.2287 48.8196 74.6094H48.8878C49.0213 74.2344 49.2628 73.9347 49.6122 73.7102C49.9645 73.483 50.3807 73.3693 50.8608 73.3693C51.4716 73.3693 51.9673 73.5639 52.348 73.9531C52.7315 74.3395 52.9233 74.8878 52.9233 75.598V80H51.1122V75.956C51.1122 75.5923 51.0156 75.3196 50.8224 75.1378C50.6293 74.956 50.3878 74.8651 50.098 74.8651C49.7685 74.8651 49.5114 74.9702 49.3267 75.1804C49.142 75.3878 49.0497 75.6619 49.0497 76.0028V80H47.2898V75.9176C47.2898 75.5966 47.1974 75.3409 47.0128 75.1506C46.831 74.9602 46.5909 74.8651 46.2926 74.8651C46.0909 74.8651 45.9091 74.9162 45.7472 75.0185C45.5881 75.1179 45.4616 75.2585 45.3679 75.4403C45.2741 75.6193 45.2273 75.8295 45.2273 76.071V80H43.4119ZM54.3572 82.4545V73.4545H56.147V74.554H56.228C56.3075 74.3778 56.4226 74.1989 56.5732 74.017C56.7266 73.8324 56.9254 73.679 57.1697 73.5568C57.4169 73.4318 57.7237 73.3693 58.0902 73.3693C58.5675 73.3693 59.0078 73.4943 59.4112 73.7443C59.8146 73.9915 60.1371 74.3651 60.3786 74.8651C60.62 75.3622 60.7408 75.9858 60.7408 76.7358C60.7408 77.4659 60.6229 78.0824 60.3871 78.5852C60.1541 79.0852 59.8359 79.4645 59.4325 79.723C59.032 79.9787 58.5831 80.1065 58.0859 80.1065C57.7337 80.1065 57.4339 80.0483 57.1868 79.9318C56.9425 79.8153 56.7422 79.669 56.5859 79.4929C56.4297 79.3139 56.3104 79.1335 56.228 78.9517H56.1726V82.4545H54.3572ZM56.1342 76.7273C56.1342 77.1165 56.1882 77.456 56.2962 77.7457C56.4041 78.0355 56.5604 78.2614 56.7649 78.4233C56.9695 78.5824 57.218 78.6619 57.5107 78.6619C57.8061 78.6619 58.0561 78.581 58.2607 78.419C58.4652 78.2543 58.62 78.027 58.7251 77.7372C58.8331 77.4446 58.8871 77.108 58.8871 76.7273C58.8871 76.3494 58.8345 76.017 58.7294 75.7301C58.6243 75.4432 58.4695 75.2187 58.2649 75.0568C58.0604 74.8949 57.8089 74.8139 57.5107 74.8139C57.2152 74.8139 56.9652 74.892 56.7607 75.0483C56.5589 75.2045 56.4041 75.4261 56.2962 75.7131C56.1882 76 56.1342 76.3381 56.1342 76.7273ZM66.1484 77.2131V73.4545H67.9638V80H66.2209V78.8111H66.1527C66.005 79.1946 65.7592 79.5028 65.4155 79.7358C65.0746 79.9687 64.6584 80.0852 64.1669 80.0852C63.7294 80.0852 63.3445 79.9858 63.0121 79.7869C62.6797 79.5881 62.4197 79.3054 62.2322 78.9389C62.0476 78.5724 61.9538 78.1335 61.951 77.6222V73.4545H63.7663V77.2983C63.7692 77.6847 63.8729 77.9901 64.0774 78.2145C64.282 78.4389 64.5561 78.5511 64.8999 78.5511C65.1186 78.5511 65.3232 78.5014 65.5135 78.402C65.7038 78.2997 65.8572 78.1491 65.9737 77.9503C66.093 77.7514 66.1513 77.5057 66.1484 77.2131ZM74.8619 75.321L73.1999 75.4233C73.1715 75.2812 73.1104 75.1534 73.0167 75.0398C72.9229 74.9233 72.7994 74.831 72.646 74.7628C72.4954 74.6918 72.315 74.6562 72.1048 74.6562C71.8235 74.6562 71.5863 74.7159 71.3931 74.8352C71.1999 74.9517 71.1033 75.108 71.1033 75.304C71.1033 75.4602 71.1658 75.5923 71.2908 75.7003C71.4158 75.8082 71.6303 75.8949 71.9343 75.9602L73.119 76.1989C73.7553 76.3295 74.2298 76.5398 74.5423 76.8295C74.8548 77.1193 75.011 77.5 75.011 77.9716C75.011 78.4006 74.8846 78.777 74.6317 79.1009C74.3817 79.4247 74.038 79.6776 73.6005 79.8594C73.1658 80.0384 72.6644 80.1278 72.0962 80.1278C71.2298 80.1278 70.5394 79.9474 70.0252 79.5866C69.5138 79.223 69.2141 78.7287 69.1261 78.1037L70.9116 78.0099C70.9656 78.2741 71.0962 78.4759 71.3036 78.6151C71.511 78.7514 71.7766 78.8196 72.1005 78.8196C72.4187 78.8196 72.6744 78.7585 72.8675 78.6364C73.0636 78.5114 73.163 78.3509 73.1658 78.1548C73.163 77.9901 73.0934 77.8551 72.957 77.75C72.8207 77.642 72.6104 77.5597 72.3263 77.5028L71.1928 77.277C70.5536 77.1491 70.0778 76.9276 69.7653 76.6122C69.4556 76.2969 69.3008 75.8949 69.3008 75.4062C69.3008 74.9858 69.4144 74.6236 69.6417 74.3196C69.8718 74.0156 70.1942 73.7812 70.609 73.6165C71.0266 73.4517 71.5153 73.3693 72.0749 73.3693C72.9016 73.3693 73.5522 73.544 74.0266 73.8935C74.5039 74.2429 74.7823 74.7187 74.8619 75.321Z" fill="black"/>
</g>
<defs>
<filter id="filter0_d_23_30" x="18.8051" y="66.3534" width="61.0059" height="20.9011" filterUnits="userSpaceOnUse" color-interpolation-filters="sRGB">
<feFlood flood-opacity="0" result="BackgroundImageFix"/>
<feColorMatrix in="SourceAlpha" type="matrix" values="0 0 0 0 0 0 0 0 0 0 0 0 0 0 0 0 0 0 127 0" result="hardAlpha"/>
<feOffset/>
<feGaussianBlur stdDeviation="2.4"/>
<feComposite in2="hardAlpha" operator="out"/>
<feColorMatrix type="matrix" values="0 0 0 0 1 0 0 0 0 1 0 0 0 0 1 0 0 0 1 0"/>
<feBlend mode="normal" in2="BackgroundImageFix" result="effect1_dropShadow_23_30"/>
<feBlend mode="normal" in="SourceGraphic" in2="effect1_dropShadow_23_30" result="shape"/>
</filter>
</defs>
</svg>
