<svg width="50" height="50" viewBox="0 0 50 50" fill="none" xmlns="http://www.w3.org/2000/svg">
<path d="M32 11C23.3793 17.4937 22.4598 30.3671 22 38H27.1724C27.5172 13.3924 30.6207 14.4177 32 11Z" fill="#00AA02" stroke="#00AA02" stroke-linejoin="round"/>
<path d="M13 18C18.5172 29.6667 18.5172 34.8889 17.8276 38H23C23 24 16.3333 20.4444 13 18Z" fill="#33BD00" stroke="#33BD00" stroke-linejoin="round"/>
<path d="M10 26C13.4667 30.8 13.6667 36 13.3333 38H18C17.4667 30.3765 12.4444 26.8235 10 26Z" fill="#78D609" stroke="#78D609" stroke-linejoin="round"/>
<path d="M37 16C32.4667 24.0787 31.7778 33.9126 32 38H27C27.6667 25.0164 34 17.3224 37 16Z" fill="#008000" stroke="#008000" stroke-linejoin="round"/>
<path d="M39 26C33.1565 29.0171 31.2319 35.1429 31 38H36.913C35.2435 32.5143 37.6087 27.8286 39 26Z" fill="#005B01" stroke="#005B01" stroke-linejoin="round"/>
</svg>
